<?xml version="1.0" encoding="UTF-8"?>
<svg id="Layer_2" data-name="Layer 2" xmlns="http://www.w3.org/2000/svg" viewBox="0 0 290 61.05">
  <defs>
    <style>
      .cls-1 {
        fill-rule: evenodd;
      }

      .cls-1, .cls-2 {
        stroke-width: 0px;
      }
    </style>
  </defs>
  <g id="Layer_1-2" data-name="Layer 1">
    <g>
      <g>
        <path class="cls-2" d="m91.99,51.32s-1.15-.17-7.51-.11c-10.64.1-43.95-.86-43.95-.86-.98,0-1.78.83-1.78,1.85,0,.29.07.57.19.82.2.62.7,1.8,1.56,1.8.97,0,1.98-.42,3.65-.65.8-.11,1.69-.24,2.62-.35,7.99-.28,21.23-.71,24.79-.62,5.2.13,20.43-.04,20.43-.04.55,0,.99-.42.99-.93s-.44-.93-.99-.93Z"/>
        <path class="cls-2" d="m264.8,52.21c0-.91-.63-1.66-1.45-1.82-.08-.05-1.03,0-1.14.02-4.78.34-53.86.93-57.42.92-3.69-.01-92.84,0-92.84,0-.55,0-.99.42-.99.93s.44.93.99.93c0,0,70.59.2,76.1,0,4.6-.16,53.74.56,69.87.81.5.07.98.14,1.44.2,1.67.22,2.69.65,3.65.65.84,0,1.36-1.14,1.57-1.77.13-.26.21-.54.21-.85Z"/>
      </g>
      <path class="cls-1" d="m155.49,27.83c-.26-.41-.67-.6-1.11-.67-.44-.07-5.09-.21-8.48-.1-3.39.11-4.57.69-4.87.85-.43.24-.87.64-.7,1.3.27,1.11,1.06.91,1.35.84.79-.2,1.5-.17,2.27.55,1.05.97.01,5.24-3.71,6.76-2.39-2.95-3.31-6.18-2.89-9.76,3-1.86,7.87-3.41,9.68-5.27,1.95-2.01,2.16-3.64,1.01-5.15-1.36-1.78-5.58-1.49-8.24.6-2.08,1.64-4.48,5.34-4.87,8.34-3.78,1.71-10.35,4.75-10.05,10.71.26,4.98,7.65,6.89,14.93,3.31,1.51.9,4.05,2.02,5.17,1.99.29,0,.83-.4.91-.7.07-.28-.09-.63-.32-.69-.3-.07-2.29-.47-3.64-1.69,2.21-1.29,7.43-5.76,5.02-9.21,4-.57,6.72-.86,8.2-.97.31-.02.59-.63.33-1.04Zm-13.93-8.36c1.35-.94,2.72-1.49,3.49-.71.57.57.06,2.08-1.75,3.24-1.67,1.06-3.37,1.72-5.3,2.62.38-1.62,2.39-4.33,3.55-5.14Zm-12.52,17.99c-1.21-2.92,1.81-7.12,5.57-8.87.17,3.5.8,6.49,3.72,9.85-4.19,1.86-8.28,1.46-9.29-.99Z"/>
      <g>
        <path class="cls-2" d="m260.01,20.7c1.46,0,2.64-1.18,2.64-2.64s-1.18-2.64-2.64-2.64-2.64,1.18-2.64,2.64,1.18,2.64,2.64,2.64Z"/>
        <path class="cls-2" d="m288.83.21c-2.03-1.29-8.73,3.45-13.01,11.7-2.38,4.59-3.32,7.7-4.18,12.22-1.67-3.01-8.94-1.22-15.48,6.06-5.61,4.85-13.41,9.35-14.54,7.93-1-1.25,3.46-6.54,5.6-8.42,1.75-1.54,5.53-4.37,6.41-4.82.2-.1.98-1.06.05-2.22-1.04-1.3-2.37-.94-2.8-.64-.36.25-2.8,2.1-5.96,5.15-3.16,3.05-5.36,2.91-6.59,1.87.71-.73,1.44-1.76,1.88-2.81.66-1.57.81-3.49-.51-4.05-1.38-.58-2.86.73-3.73,2.77-.72,1.71-.59,2.98-.1,3.86-2.25,2.67-4.93,4.95-6.3,6.05-1.51,1.21-4.33,3.02-5.63,2.13-1.58-1.09,1.6-5.69,2.54-6.88,1.13-1.42,3.29-3.92,4-4.21.16-.07.47-.94-.02-1.75-.85-1.41-2.37-1.35-3.23-.67-.76.6-1.98,2.78-4.22,5.55-4.53,5.57-10.43,9.77-11.75,8.9-1.11-.73.9-3.95,1.86-4.93.9-.92,2-1.99,2.1-2.07.1-.08.11-.79-.52-1.35-.62-.55-1.5-.47-2.75.48-1.25.95-2.7,2.38-4.48,3.66-2.37,1.7-7.41,4.72-8.39,3.07-.63-1.06,1.51-4.82,5.38-7.92,3.38-2.71,6.62-3.76,7.37-3.01.28.28.28.55.22.67-.06.12.08.32.31.37.49.1,1.16-.2,1.88-1.09.51-.63.64-1.72.2-2.44-1.55-2.52-7.39-.51-12.18,3.32-6.2,4.97-8.28,10.68-6.32,12.58,2,1.93,8.12.48,13.83-5.19-1.79,2.5-1.94,5.22-.89,5.94,2.17,1.5,6.99-.6,12.31-6.02-.6,1.87-1.16,4.41.14,5.58,2.69,2.42,9.32-1.21,15.73-9.18.84.72,2.52,1.7,4.78.47-.96,1.15-4.81,7.1-3.2,9.02,2.17,2.59,9.05-.69,14.73-5.31-.86,1.75-1.04,4.18.26,5.14,3.4,2.5,10.47-.89,15.68-5.32.08-.07,1.43-1.11,1.43-1.11,0,.02,0,.43,0,.43-.05,4.12.53,8.13,2.63,10.78,2.11,2.63,5.49,1.83,6.07.63h0c.13-.26,0-.39-.16-.41-.16-.02.04,0,.04,0-.12-.02-.2,0-.31,0-1.33.18-2.68-.06-3.89-1.61-.96-1.23-1.62-3.34-2.06-5.65-.38-1.99-.51-4.62-.44-5.48.01-.16.03-.32.03-.32,0,0,8.92-8.56,13.22-16.21,4.43-7.88,5.08-13.92,2.96-15.27Zm-24.51,35.26c-4.45,2.9-7.31,3.31-7.94,2.26-.73-1.22,1.21-5.52,5.76-9.04,3.88-3,7.63-3.98,8.6-2.27.02.04.25.51.29.98.04.16.04.41.04.6-.09.89-.18,1.89-.23,2.53l-.39.36s-3.6,2.92-6.15,4.58Zm14.16-23.92c3.42-5.53,5.95-7.69,7.02-7.21,1.41.63,1.06,3.73-3.43,11.7-2.67,4.74-4.86,7.69-6.57,9.83-1.02,1.28-2.68,3.23-2.68,3.23,0,0,.31-3,1.1-6.06,1.01-3.94,2.7-8.47,4.56-11.48Z"/>
      </g>
      <path class="cls-2" d="m122.25,32.02c-2.55.73-4.22,1.55-6.9,3,.83-3.27,1.31-4.56,2.54-6.37.56-.83,1.56-1.76,2.36-2.67,1.06-1.2,1.82-2.35,1.18-3-.67-.69-3.14.52-4.29,1.99-1.15,1.48-1.5,2.33-1.77,3.03-4.47,5.89-11.6,10.15-12.68,8.23-.89-1.59,1.14-4.71,2.85-6.78,1.39-1.68,3.97-4.1,4.76-4.82.19-.17.93-1.01-.08-1.9-1.01-.89-2.26-.46-2.67-.12-.41.34-4.37,5.01-7.32,8.51-3.25,3.86-7.96,6.49-8.64,5.68-.85-1,.6-3.27,1.43-4.67,1.11-1.89,3.03-4.69,1.58-7.23-.66-1.17-1.8-2.66-1.27-3.47,1.09-1.65,1.62-2.16,1.53-2.82-.1-.66-.48-1.18-.7-1.32-.22-.14-.53-.12-.7.1-1.36,1.85-6.29,8.52-9.77,12.79-3.72,4.58-6.56,7.38-7.36,6.25-.66-.93-.06-3.05,1.04-5.35.32-.54.64-1.12.9-1.73,0,0,0-.01.01-.02h0c.63-1.44.94-3.02.09-4.51-.66-1.17-1.8-2.66-1.27-3.47,1.09-1.65,1.62-2.16,1.53-2.82-.1-.66-.48-1.18-.7-1.32-.22-.14-.53-.12-.7.1-1.36,1.85-6.29,8.52-9.77,12.79-.73.9-1.43,1.73-2.09,2.48-2.05,2.05-3.71,3.13-4.21,2.49-.5-.63.36-2.69.74-3.48.33-.69,2.05-3.14,2.16-3.3.11-.16.22-.5-.01-.89-.23-.38-.85-.84-1.87-.68-.87.13-3.44,3.23-3.94,3.72-2.5,2.58-7.27,7.73-10.17,6.75-2.18-.74-.09-6.35,8.22-10.28,1.29-.61,2.88-.99,3.88-1.29.36-.11.94-.9,1.06-1.46.16-.76-.08-1.28-1.52-1.58-.68-.14-2.11-.35-3.71-.29-4.96.19-10.71.71-10.71.71,0,0,5.28-9.62,8.51-14.6.16-.25.31-.53-.12-.98-1.02-1.07-3.96-.03-5.01.6-.37.22-.63.86-.55,1.32.08.46-.47,1.43-.82,2.04-1.32,2.31-6.29,12.17-6.29,12.17l-13.67,1.27s6.65-14.47,9.45-18.88c.49-.78.34-1.93-.9-2.06-1.24-.13-2.46.23-3.13.48-.67.25-1.57.8-1.36,1.55.21.76.01.92-.41,1.68-.42.76-.85,1.21-2.48,1.64-9.03,2.37-14.94,4.21-21.49,9.11C.89,22.97-2.38,31.29,2.03,36.58c3.26,3.9,8.04,2.75,9.01,1.59.25-.3,0-.63-.27-.59-1.07.18-3.24-.32-5.11-3.16-3.02-4.59-1.07-10.08,3.9-14.22,5.48-4.57,9.92-6.23,19.59-8.72-1.14,2.83-5.5,13.69-5.5,13.69,0,0-8.73.8-9.53,1.08-.8.27-1.13.95-.88,1.6.29.75.67,2.09,1.5,2.32.46.13.9-.1.97-.29.06-.19.48-.36.73-.42,1.9-.42,5.85-1.01,5.85-1.01,0,0-3.96,10.15-6.57,17.05-.15.41.22.79.76.59.56-.21,1.95-.94,2.26-1.21.15-.13.33-.3.45-.64.32-.98,6.74-16.23,6.74-16.23l13.73-1.58s-5.24,11.81-7.8,18.48c-.24.61.08.92.54.8.44-.12,2.22-.81,2.48-1.11.15-.16.29-.37.45-.74,1.02-2.37,8.53-17.99,8.53-17.99,0,0,6.27-.87,10.72-1.16-10.49,4.42-12.7,12.48-9.61,14.45,1.61,1.03,4.01,1.1,6.9-.45,1.98-1.06,4.13-2.81,6.25-5.29-.22.96-.73,4.61,1.37,5.07,3.88.85,8.04-4.14,15.28-14.15.14-.15.95.97,1.24,1.72.21.54.62,1.5.02,2.71-1.85,3.26-4.65,8.12-3.09,10.19,1.35,1.79,4.85,1.71,10.82-5.65,3.11-3.84,7.01-8.62,7.24-8.88.14-.15.75.98,1.04,1.73.24.63.15,1.4-.12,1.93-.66,1.36-1.11,2.23-2.28,4.29-1.57,2.75-2.18,5.26-1.17,6.71,1.16,1.65,6.05,1.11,11.9-5.27-.88,1.93-1.05,3.94.02,4.96,1.64,1.57,6.83.47,13.2-5.93-.77,2.14-.89,2.35-1.43,3.79h.02c-3.28,2.08-8.13,5.58-11.33,8.77-5.3,5.28-8.73,12.54-6.25,14.86,2.75,2.57,10.19-.8,15.4-10.35,2.59-4.75,3.68-9.18,4.44-11.86,2.38-1.34,4.31-2.34,6.26-2.88.38-.1.57-.03.92-.22.66-.37,1.59-1.59,1.63-2.2.04-.72-.38-.85-.95-.69Zm-15.88,17.9c-4.34,7.06-8.7,9.23-9.82,7.73-1.17-1.56,1.42-6.67,5.26-10.58,2.95-3,6.42-5.73,9.28-7.61-1.19,3.07-1.78,5.68-4.72,10.46Z"/>
      <path class="cls-2" d="m182.84,7.24c-.88-.4-2.38-.91-3.06-1.1-1.14-.32-4.68-.92-6.68-.92l-.83-.03c-3.77,0-6.88.39-9.87,1.47-9.75,3.54-11.28,10.33-2.59,13.9,2.17.89,4.61,1.72,6.77,2.45.02,0,.04.01.05.02l-.08.12c-1.24,1.7-6.62,10.24-9.34,15.27-3.29,1.23-4.85,4.59-3.14,5.91,1.71,1.32,3.31-1.08,4.86-3.89,2.47-.81,7.25-.11,10.15.5,2.01.42,3.92.69,5.73.81.19.01.38.01.58,0,1.32.06,2.59.03,3.78-.12,19.82-2.58,22.62-25.73,3.66-34.4Zm-4.2,31.26c-1.95.44-4.13.54-6.51.41-.67-.05-1.35-.12-2.03-.22-1.85-.26-7.04-1.35-9.47-1.03,1.77-2.96,5.7-8.39,9.26-13.33,1.3.46,3.27,1.19,4.49,1.83,3.76,1.96,2.32,4.53.3,5.6-.68.36-1.32.4-1.61.44-.16.02-.23.23.03.37.54.29,1.77.55,2.97.43,1.82-.19,3.34-1.54,3.77-3.22l.12-.91c.02-1.76-1.17-3.72-4.36-5.07-1.51-.64-2.71-1.04-4.24-1.62,1.7-2.19,3.39-4.02,4.26-4.93.87-.91,1.56-1.3,1.87-1.47.23-.12.74-1.68-.74-2.4-1.24-.6-2.37-.17-2.88.33-.51.49-3.58,4.1-5.87,7.42-.04-.01-.08-.03-.12-.04h0c-1.51-.56-3.28-1.22-4.95-2-6.73-3.1-6.18-7.3-.41-9.9,2.43-1.1,5.88-1.62,9.03-1.73,1.78,0,3.76.27,5.75.66,1.6.36,3.12.98,3.5,1.15,15.35,6.92,13.67,25.66-2.16,29.21Z"/>
      <path class="cls-2" d="m276.03,36.18c0-1.6,1.3-2.91,2.91-2.91s2.91,1.31,2.91,2.91-1.3,2.91-2.91,2.91-2.91-1.31-2.91-2.91Zm5.37,0c0-1.39-1.08-2.46-2.46-2.46s-2.46,1.08-2.46,2.46,1.08,2.46,2.46,2.46,2.46-1.08,2.46-2.46Zm-2.41-1.75c1,0,1.21.56,1.21,1.02,0,.43-.3.82-.82.92l.75,1.69h-.49l-.71-1.63h-.71v1.63h-.44v-3.63h1.21Zm-.77,1.61h.59c.74,0,.86-.26.86-.59,0-.47-.3-.62-.78-.62h-.67v1.21Z"/>
    </g>
  </g>
</svg>