<?xml version="1.0" encoding="UTF-8"?>
<svg id="Layer_1" data-name="Layer 1" xmlns="http://www.w3.org/2000/svg" viewBox="0 0 291.1 147.5">
  <defs>
    <style>
      .cls-1 {
        fill: none;
      }

      .cls-1, .cls-2, .cls-3 {
        stroke-width: 0px;
      }

      .cls-2 {
        fill: #477897;
      }

      .cls-3 {
        fill: #fff;
      }
    </style>
  </defs>
  <g>
    <path class="cls-1" d="m192.71,30.18c-.25-1.18-.86-2.42-1.69-3.41-.35-.43-.99-.9-1.61-1.34-.97-.7-1.93-1.39-2.34-2.21-.44-.9-.61-2.11-.79-3.4-.07-.58-.15-1.15-.26-1.71-.31-1.62-.43-3.13-.54-4.47-.1-1.22-.2-2.38-.4-3.44-.31-.05-1.08-.11-2.56.19l-.17.04c-.11.02-.22.05-.32.07.07.62.16,1.29.26,1.97.47,3.58,1.18,8.95-.42,12l.03.02-.12.18-.1.18h-.01c-2.98,4.41-2.86,7.66-2.37,11.73.11.9.22,1.82.31,2.75.26,2.6.53,5.17.8,7.64v.13s13.79-3.07,13.79-3.07c-.09-1.04-.16-2.07-.24-3.08-.28-3.86-.55-7.47-1.25-10.74Z"/>
    <path class="cls-1" d="m149.36,23.79c.13,0,.2-.01.2-.01,0,0-.07,0-.2.01Z"/>
    <path class="cls-1" d="m161.58,35.31l-6.64,2.37,4.12,9.01c2.26-3.98,2.73-8.04,2.53-11.38Z"/>
    <polygon class="cls-3" points="177.82 68.82 177.82 68.82 177.57 68.86 177.82 68.82"/>
  </g>
  <g>
    <polygon class="cls-2" points="179.22 65.19 178.64 62.71 176.46 63.21 177.06 65.69 179.22 65.19"/>
    <polygon class="cls-2" points="175.49 59.19 176.07 61.58 178.26 61.08 177.71 58.68 175.49 59.19"/>
    <rect class="cls-2" x="179.58" y="57.98" width="2.55" height="2.46" transform="translate(-8.71 42.52) rotate(-13.1)"/>
    <rect class="cls-2" x="180.53" y="62.01" width="2.55" height="2.55" transform="translate(-9.6 42.75) rotate(-13.07)"/>
    <path class="cls-2" d="m190.81,20.83c.22.63.55,1.21,1.13,1.64.22.16.44.32.66.47l23.42-.27-1.11,16.72-18.71,4.17c-.09-1.16-.17-2.31-.25-3.45v-.14c-.28-3.95-.54-7.69-1.32-11.03-.25-1.06-.87-2.38-1.55-3.29-.49-.66-1.31-1.25-2.09-1.81l-.07-.05c-.85-.61-1.73-1.24-2-1.82-.98-2.13-1.13-4.89-1.3-7.63-.12-2.02-.23-3.93-.68-5.52l-.12-.41-.46-.08c-.95-.18-2.52-.1-4.01.2l-.15.03c-.49.1-1.19.28-1.73.55l-.47.22.03.47c.06,1.26.2,2.72.36,4.32.34,3.43.73,7.32-.12,9.69v.02c-2.23,2.76-3.53,5.53-3.57,7.62-.05,3.3.46,7.03,1.01,10.98.19,1.4.44,3.25.65,5.07v.04s-17.19,3.83-17.19,3.83l-1.9-4.16c2.42-2.16,5.47-6.49,4.01-12.51l10.89-3.89c.1-1.03.45-1.8,1.06-2.69l-12.61,4.49c-.61-1.54-1.51-3.17-2.78-4.89,0,0,.98,2.13,1.48,5.35l-9.92,3.54,6.98,15.37-4.77,1.06,11.94,10.95,1.79-.41.57-.13,6.51-1.5-.58-2.4-5.14,1.19-.38-1.63,8.99-2.07-.61-2.64,1.63-.38.61,2.64,2.49-.57-1.18-5.09,1.63-.38,1.17,5.08,11.75-2.71.38,1.63-11.75,2.71.55,2.4,5.56-1.28.38,1.63-5.56,1.28.57,2.48,11.69-2.7.38,1.63-11.69,2.7.45,1.92.24,1.01.22.94,23.85-4.2,12.17-27.42-5.28,1.18.9-18.45-27.07.35Zm-29.23,14.48c.21,3.34-.26,7.4-2.53,11.38l-4.12-9.01,6.64-2.37Zm18.81,11.64c-.27-2.47-.54-5.04-.8-7.64-.09-.93-.2-1.85-.31-2.75-.5-4.08-.61-7.32,2.37-11.74h.01s.1-.17.1-.17l.12-.18-.03-.02c1.6-3.05.9-8.42.42-12-.1-.69-.19-1.35-.26-1.97.11-.02.21-.05.33-.07l.17-.04c1.48-.3,2.25-.25,2.56-.19.21,1.07.3,2.22.4,3.44.11,1.34.23,2.85.54,4.47.1.56.18,1.13.26,1.71.18,1.28.35,2.5.79,3.4.41.82,1.37,1.51,2.34,2.21.62.45,1.26.91,1.61,1.34.82.99,1.43,2.23,1.69,3.41.7,3.27.96,6.89,1.25,10.74.07,1.01.15,2.05.24,3.08l-13.78,3.07v-.13Z"/>
    <path class="cls-2" d="m136.54,21.66c3.84,2.46,11.49,2.19,12.82,2.13.13,0,.2-.01.2-.01,0,0-.07,0-.2.01-1.33.09-8.88.86-10.82,6.89-1.61,5.01,3.46,11.3,6.79,10.69,5.01-.93,8.64-13.2,7.72-16.11-.44,3.31-3.35,11.86-7.2,12.18-3.05.26-4.8-4.03-3.11-7.61,2.58-5.49,10.91-5.73,10.84-6.24-.07-.51-6.17-.21-11.57-2.1-5-1.75-2.85-6.19,2.38-4.75,6.91,1.9,9.87,5.89,10.13,5.69.25-.2-2.85-2.9-4.47-9.02-1.61-6.04,1.23-8.29,4.14-3.44,1.79,2.98,1.64,6.24,1.12,10.12.73-1.32,2.28-6.63.38-11.75-1.63-4.4-5.81-6.85-7.58-4-1.63,2.62-2.59,8.18,3.91,15.36,0,0-5.42-5.16-12.94-5.96-4.85-.51-7.14,4.98-2.52,7.93Z"/>
    <path class="cls-2" d="m180.38,3c14.25-3.05,27.97,4.3,30.82,16.41.8.01,1.58-.03,2.35-.11-2.93-13.58-18.02-21.9-33.66-18.56-12.25,2.62-21.25,11.64-23.2,21.95.98-.64,1.52-.65,2.5-.69,2.37-8.74,10.53-16.72,21.19-19Z"/>
    <path class="cls-2" d="m174.46,16.46c-.65,2.11-4.73,9.42-13.09,9.84,6.33,1.59,11.29-.31,13.09-9.84Z"/>
    <path class="cls-2" d="m174.46,16.46c.07-.23.1-.4.09-.49-.03.17-.06.33-.09.49Z"/>
    <path class="cls-2" d="m159.43,26.51c.91-1.24.93-2.78.03-3.44-.89-.66-2.36-.18-3.27,1.06-.91,1.24-.92,2.78-.03,3.44.9.66,2.36.18,3.27-1.06Z"/>
    <polygon class="cls-2" points="181.87 69.12 182.1 70.1 184.57 69.66 184.35 68.71 184.12 67.71 183.7 65.87 181.22 66.44 181.63 68.15 181.87 69.12"/>
    <polygon class="cls-2" points="171.71 66.92 175.43 66.06 174.83 63.59 169.44 64.84 168.84 64.98 167.08 65.39 173.8 71.56 180.42 70.39 180.19 69.39 179.97 68.44 179.59 66.82 177.45 67.31 177.82 68.82 177.82 68.82 177.57 68.86 176.15 69.1 175.82 67.69 173.2 68.29 172.54 68.44 171.38 68.71 171 67.08 171.08 67.07 171.71 66.92"/>
    <path class="cls-2" d="m31.58,66.42c-.04.75-.42,1.04-1.51,1.13l-3.83.38.19,1.28c2.37,0,5.02-.14,7.29-.14,1.7,0,4.64.14,7.67.14l-.09-1.28-3.83-.33c-.85-.09-1.04-.42-1.09-1.18-.09-1.57-.14-3.36-.14-6.91v-9.18c0-5.87.19-8.94.19-10.69l-.24-.15c-1.09.43-5.91,1.18-9.04,1.52l-.28,1.33c1.28-.04,3.36-.19,4.26-.24.38,0,.56.19.56.75.1,1.47.1,3.88.1,7.43v9.37c0,3.5-.1,5.63-.2,6.77Z"/>
    <path class="cls-2" d="m45.74,49.37h-.04c-2.02,0-3.74,1.7-3.74,4s1.73,3.97,3.74,3.97,3.83-1.62,3.83-3.97-1.52-4-3.78-4Z"/>
    <path class="cls-2" d="m54.13,62.35c0,4.58,3.59,7.37,9.32,7.37,2.65,0,5.4-.94,7.19-2.51,1.71-1.46,2.7-3.41,2.7-5.73,0-2.98-1.09-5.4-6.53-8.28,1.61-1.09,2.79-1.99,3.65-2.84.85-.9,1.56-2.22,1.56-3.93,0-4.3-3.64-7-7.71-7h-.05c-3.45,0-5.82,1.32-7.28,3.11-.99,1.33-1.65,2.71-1.65,5.03,0,3.08,1.6,5.25,4.96,7.24-1.84,1.23-3.45,2.22-4.44,3.27-.95.94-1.7,2.32-1.7,4.26Zm4.83-16.57c0-3.23,2.37-4.87,4.58-4.87h.05c3.26,0,5.11,2.55,5.11,5.82,0,2.65-1.14,4.36-3.17,5.78-1.61-.8-3.6-1.8-4.87-2.89-1.19-1-1.7-2.32-1.7-3.83Zm2.65,9.7c5.54,2.94,7.67,4.5,7.67,7.67s-2.08,5.11-5.11,5.11h-.04c-4.35,0-6.3-3.27-6.3-6.58,0-2.84,1.56-4.87,3.79-6.2Z"/>
    <path class="cls-2" d="m86.69,39.48h-.05c-2.04,0-3.92.67-5.54,1.94-3.36,2.79-4.78,7.86-4.83,13.34-.05,5.06.99,9.75,3.6,12.49,1.66,1.7,3.92,2.46,6.15,2.46,1.76,0,3.98-.47,5.87-2.04,2.51-2.17,4.4-6.33,4.45-13.58,0-4.64-.99-9.13-3.31-11.82-1.66-1.85-3.79-2.8-6.34-2.8Zm3.31,26.08c-.9,1.8-1.89,2.7-3.5,2.7-1.8,0-3.03-1.14-3.84-2.89-1.09-2.46-1.61-6.53-1.61-10.97s.71-8.85,1.9-11.07c.9-1.66,1.84-2.41,3.35-2.41h.05c1.75,0,2.79.9,3.65,2.51.94,1.99,1.61,5.78,1.61,11.12,0,4.96-.57,8.85-1.61,11.03Z"/>
    <path class="cls-2" d="m108.64,69.72c1.76,0,3.98-.47,5.87-2.04,2.51-2.17,4.4-6.33,4.45-13.58,0-4.64-1-9.13-3.31-11.82-1.66-1.85-3.78-2.8-6.35-2.8h-.04c-2.04,0-3.93.67-5.54,1.94-3.36,2.79-4.78,7.86-4.83,13.34-.04,5.06,1,9.75,3.61,12.49,1.65,1.7,3.92,2.46,6.15,2.46Zm-3.08-26.4c.9-1.66,1.85-2.41,3.36-2.41h.04c1.76,0,2.79.9,3.65,2.51.94,1.99,1.6,5.78,1.6,11.12,0,4.96-.56,8.85-1.6,11.03-.91,1.8-1.9,2.7-3.51,2.7-1.79,0-3.03-1.14-3.83-2.89-1.09-2.46-1.61-6.53-1.61-10.97s.71-8.85,1.89-11.07Z"/>
    <path class="cls-2" d="m194.97,139.68h-.06c-1.98,0-3.54,1.63-3.54,3.78,0,2.26,1.56,3.76,3.54,3.76s3.53-1.51,3.53-3.76c0-2.09-1.39-3.78-3.47-3.78Z"/>
    <path class="cls-2" d="m213.19,145.32c-2.17,0-3.88-.94-5.02-2.79-.9-1.51-1.32-3.65-1.32-6.06,0-5.07,1.94-9.13,5.83-9.13,2.65,0,3.69,1.33,3.69,3.45,0,.47-.14,1-.19,1.47-.09.37.1.75.38.99.24.24.76.33,1.18.33,1.28,0,2.42-.81,2.42-2.51,0-3.13-3.03-5.11-7.34-5.11-6.82,0-10.7,5.02-10.7,11.08,0,3.21.8,5.73,2.22,7.43,1.76,2.03,4.08,3.03,7.48,3.03,4.68,0,7.48-2.51,8.66-6.39l-1.23-.66c-1.23,3.31-2.88,4.87-6.06,4.87Z"/>
    <path class="cls-2" d="m233.27,125.97h-.04c-6.77,0-10.55,4.93-10.55,10.93s3.35,10.6,10.27,10.6c6.53,0,10.41-4.36,10.41-10.93,0-6.2-3.79-10.6-10.09-10.6Zm4.12,17.61c-.9,1.7-2.23,2.51-4.07,2.51s-3.46-1-4.45-2.88c-.85-1.62-1.38-4.17-1.38-7.01s.53-5.06,1.38-6.48c.95-1.42,2.17-2.32,4.07-2.32h.05c2.03,0,3.41,1.09,4.26,2.7.8,1.47,1.33,4.02,1.33,6.91s-.48,5.16-1.18,6.59Z"/>
    <path class="cls-2" d="m280.28,144.38v-12.64c0-1.08-.19-2.22-.67-3.07-.66-1.19-2.17-2.7-5.11-2.7-3.7,0-6.06,2.27-7.66,3.83-.19-.57-.38-1.23-.81-1.8-.61-.9-1.94-2.03-4.54-2.03-3.41,0-5.96,2.13-7.66,3.88-.05-.76-.19-2.93-.29-3.69-2.18.48-4.78.71-6.96.71l-.1,1.27c2.56,0,2.9.1,2.94.76.09,1.28.14,3.27.14,5.78v3.88c0,2.65-.05,4.54-.14,5.68-.05,1.18-.48,1.33-2.89,1.42v1.33c1.42,0,3.18-.14,4.92-.14s3.98.14,5.12.14l.19-1.33c-2.41-.09-2.8-.28-2.89-1.23-.05-1.09-.1-2.51-.1-4.4v-6.2c0-.94.14-1.47.52-2.23,1.09-1.99,2.98-3.22,5.11-3.22,1.56,0,2.51.62,3.03,1.85.34.75.38,1.27.38,4.45v3.74c0,2.88-.04,4.44-.14,5.82-.09,1.18-.56,1.33-2.74,1.42v1.33c1.28,0,2.84-.14,4.73-.14s4.07.14,5.25.14l.15-1.33c-2.41-.09-2.84-.28-2.93-1.23-.05-1.05-.1-2.79-.1-4.54v-6.34c0-.81.15-1.46.48-2.08.99-1.76,2.79-3.08,4.97-3.08,1.61,0,2.7.76,3.22,1.94.33.71.38,1.37.38,7.24,0,3.69-.09,5.72-.18,6.86-.09.85-.57,1.14-2.74,1.23l-.05,1.33c1.23,0,2.79-.14,4.82-.14s3.89.14,5.35.14l.1-1.33c-2.85-.18-3.08-.24-3.08-1.27Z"/>
    <path class="cls-2" d="m30.1,77.42c-5.53,0-10,2.58-15.05,7.04v-8.48c0-11.43.38-17.71.38-21.05-3.06.67-10.86,1.24-15.34,1.24l-.1,2.67c5.34,0,6.19.19,6.29,1.72.09,2.38.28,5.42.28,12.76v22.38c0,11.05-.19,20.86-.19,24.48l.67.48c2-.96,4.29-2.1,5.62-2.67,2.38,1.52,7.24,2.76,11.62,2.76,14.09,0,21.71-8.96,21.71-23.63,0-5.05-1.14-9.91-3.33-13.14-2.57-3.9-6.57-6.57-12.57-6.57Zm-5.53,40.48h-.09c-3.34,0-6.57-1.43-8.28-4.77-.76-1.43-1.24-2.09-1.24-12.76,0-10,.19-11.05,1.04-12.38,1.91-3.05,5.53-5.99,10.1-5.99,3.52,0,6,1.51,7.72,4.09,1.81,2.86,2.76,7.15,2.76,11.9,0,11.15-3.43,19.91-12,19.91Z"/>
    <path class="cls-2" d="m86.9,116.18c-1.24,0-2.29-.66-2.29-4.29v-24.09c0-1.81-.57-3.81-1.33-5.05-1.33-2-4.86-5.33-12.86-5.33-10.57,0-17.53,6.19-17.53,11.14,0,3.15,2.09,4.29,4.19,4.29,1.34,0,2.38-.39,3.24-.95.56-.48.95-1.24.86-2-.2-.76-.38-1.81-.38-2.86,0-4,2.48-6.85,8.1-6.85s7.43,3.9,7.43,8v3.71c-3.72,2.67-13.34,5.72-20,8.48-3.81,1.52-5.33,4.76-5.33,8.57,0,6.76,4.29,11.81,11.62,11.81,4.57,0,9.42-2.48,13.71-7.05.48,4.1,2.38,7.05,7.33,7.05,4.48,0,8.19-2.48,9.52-9.43l-2.38-.96c-.95,3.91-2.48,5.81-3.91,5.81Zm-10.57-10.67c0,1.33-.19,2.86-.57,3.9-1.62,3.62-4.39,6.29-8.76,6.29s-6.67-3.72-6.67-8.09v-.1c0-4.19,1.99-5.62,4.85-7.14,3.43-1.91,8.57-4,11.15-5.43v10.57Z"/>
    <path class="cls-2" d="m120.61,97.71c-3.52-1.72-9.62-3.72-12.57-5.24-2.19-1.14-3.62-2.67-3.62-5.43,0-4.09,2.77-6.76,7.05-6.76,6.1,0,10.1,5.05,10.58,12.28l2.47-.57c-.19-4-.09-9.62.57-14.57l-2.48-.76-1.14,3.24c-1.43-1.24-5.34-2.48-9.24-2.48-8.1,0-14.57,4.66-14.57,12.77,0,5.24,2.86,8.38,7.62,10.38,3.33,1.43,8.09,3.43,11.33,4.95,2.48,1.23,3.43,3.04,3.43,5.33,0,4.19-3.05,6.96-8.38,6.96-4.76,0-8.58-2.19-10.29-6.57-1.05-2.48-1.52-5.53-1.71-7.53l-2.38.38c.19,5.33,0,11.72-.09,13.91,2.66,1.24,8.09,2.76,13.24,2.76,8.19,0,17.04-3.91,17.04-13.34,0-4.28-2-7.62-6.86-9.71Z"/>
    <path class="cls-2" d="m168.94,115.14c-2.86-2.95-11.9-14.76-16.1-21.05,3.43-3.52,8.38-8.28,10.86-10.47,2.19-1.81,4.09-2.38,9.24-2.96l-.09-2.47c-6.19.38-13.05.57-18.76.57l-.09,2.48,4.29.38c1.05.09,1.13.66.56,1.52-2.86,4.19-10.47,12.95-14.76,13.52v-21.52c0-7.81.28-15.81.39-20.1-3.15.57-9.05,1.05-14.86,1.15v2.57l3.81.09c1.62.1,2,.48,2,1.43.19,2.95.19,7.23.19,14.66v24.57c0,7.62-.29,13.33-.38,15.04-.19,1.72-.95,2.29-6.19,2.48v2.67c2.29,0,4.77-.28,9.91-.28,4.56,0,7.8.28,11.14.28l.2-2.67c-5.05-.19-5.92-.57-6.01-2.48-.28-4.85-.19-9.14-.19-15.62,1.24-.19,2-.09,3.14,1.53,2.1,2.86,11.24,15.05,14.58,20.29,3.33-.77,9.9-1.14,14.67-1.14l.19-2.57h-2.96c-2.09-.1-3.42-.48-4.76-1.91Z"/>
    <path class="cls-2" d="m211.17,108.47l-2.47-1.33c-2.57,6.48-6.1,9.24-11.91,9.24-4.38,0-7.43-1.71-9.52-5.05-1.82-2.67-3.15-7.24-2.95-12.39,4.09.09,9.14,0,12.47,0,6.19-.09,10.85-.57,12.47-1.23,1.44-.58,2-1.91,2-3.81.1-5.53-2.47-16.48-16.28-16.48s-20.01,10.67-20.01,22.48c0,5.62,1.44,11.05,4.1,14.38,3.04,4.09,7.71,6.48,15.05,6.48,8.09,0,14.19-3.71,17.04-12.29Zm-16.86-28.19h.1c6.29,0,8.39,6.76,8.39,11.81,0,2.09-.67,3.05-1.91,3.34-1.52.28-4,.57-8.48.57h-7.91c.29-7.71,3.24-15.71,9.81-15.71Z"/>
    <path class="cls-2" d="m241.91,108.85c-1.23,4.77-3.53,8.1-7.82,8.1-2.38,0-4-1.33-4.38-3.81-.38-2.67-.48-7.52-.48-16.09,0-7.33.19-11.43.19-14.76l12.95-.57.38-2.96h-13.24c0-5.24.29-12.28.48-14.76l-.86-.29c-1.42,1.24-4.67,3.05-8.09,4.38v10.67h-6.2l-.48,2.96,6.57.57c-.09,7.33-.37,21.53-.37,29.15,0,2.76.48,4.57,1.62,6,1.43,2,4.28,3.34,8.57,3.34,6.19,0,10.95-2.86,13.33-8.48l-1.04-3.43h-1.14Z"/>
    <path class="cls-2" d="m262.58,120.76c8.19,0,17.05-3.91,17.05-13.34,0-4.28-2-7.62-6.86-9.71-3.53-1.72-9.62-3.72-12.57-5.24-2.19-1.14-3.62-2.67-3.62-5.43,0-4.09,2.76-6.76,7.04-6.76,6.1,0,10.1,5.05,10.58,12.28l2.47-.57c-.18-4-.09-9.62.57-14.57l-2.48-.76-1.13,3.24c-1.43-1.24-5.33-2.48-9.24-2.48-8.09,0-14.57,4.66-14.57,12.77,0,5.24,2.85,8.38,7.62,10.38,3.33,1.43,8.1,3.43,11.33,4.95,2.48,1.23,3.43,3.04,3.43,5.33,0,4.19-3.05,6.96-8.38,6.96-4.77,0-8.58-2.19-10.29-6.57-1.05-2.48-1.52-5.53-1.72-7.53l-2.38.38c.19,5.33,0,11.72-.09,13.91,2.67,1.24,8.09,2.76,13.24,2.76Z"/>
    <path class="cls-2" d="m289.52,145.11v-.02c.24-.07.41-.24.41-.46,0-.19-.09-.35-.19-.44-.15-.08-.32-.15-.69-.15-.33,0-.58.02-.76.06v1.99h.46v-.8h.22c.25,0,.38.1.41.32.06.23.1.41.16.49h.5c-.05-.07-.08-.19-.15-.5-.06-.27-.17-.41-.36-.49Zm-.55-.15h-.22v-.57s.13-.02.25-.02c.29,0,.42.12.42.3,0,.21-.21.29-.46.29Z"/>
    <path class="cls-2" d="m289.06,143.06c-1.14,0-2.05.89-2.05,1.99s.91,2.01,2.05,2.01,2.04-.89,2.04-2.01-.89-1.99-2.04-1.99Zm.01,3.58c-.9,0-1.55-.7-1.55-1.59s.66-1.59,1.54-1.59,1.53.72,1.53,1.6-.64,1.58-1.52,1.58Z"/>
  </g>
</svg>